<?xml version="1.0" encoding="utf-8"?>
<svg viewBox="0 0 500 500" xmlns="http://www.w3.org/2000/svg">
  <defs/>
  <path fill="#8CBCFF" opacity="1.000000" stroke="none" d="M 364.933 307.251 C 383.365 315.818 401.814 324.351 420.224 332.968 C 428.107 336.659 435.886 340.573 443.753 344.3 C 456.552 350.364 469.385 356.359 482.453 362.08 C 482.702 362.745 482.702 363.713 482.471 364.758 C 479.405 367.543 476.53 370.21 473.74 372.962 C 454.819 391.634 435.914 410.324 416.851 428.741 C 399.863 411.679 383.047 394.865 366.14 378.14 C 365.202 377.212 363.499 376.529 362.182 376.575 C 350.985 376.971 339.798 377.885 328.602 378.006 C 317.236 378.13 305.862 377.53 294.492 377.247 C 272.951 375.804 251.641 372.763 229.95 367.93 C 227.759 367.222 226.181 366.712 224.596 366.224 C 210.848 361.993 196.911 358.283 183.398 353.41 C 164.822 346.712 147.061 338.108 131.141 326.329 C 121.088 318.889 111.586 310.715 101.836 302.87 C 91.595 291.576 80.875 280.668 71.231 268.892 C 58.326 253.134 48.06 235.588 39.27 217.061 C 42.508 216.379 45.361 216.07 48.214 215.767 C 76.021 212.815 101.618 203.624 124.688 188.02 C 134.285 181.528 143.054 173.825 152.501 166.729 C 153.43 167.19 154.153 167.497 154.672 168.01 C 163.89 177.125 173.098 186.25 182.256 195.424 C 183.066 196.235 183.518 197.4 183.995 198.679 C 180.524 202.263 177.384 205.786 173.833 208.839 C 160.125 220.625 145.212 230.686 129.069 238.903 C 126.591 240.164 126.295 241.635 127.482 244.003 C 130.326 249.675 133.105 255.385 135.699 261.173 C 137.101 264.301 138.679 265.199 141.974 263.425 C 158.969 254.276 175.155 243.968 189.793 231.362 C 194.807 227.045 199.82 222.728 205.121 218.541 C 206.853 220.006 208.34 221.297 209.734 222.681 C 259.62 272.225 309.496 321.78 359.379 371.327 C 360.629 372.569 361.936 373.755 363.863 375.577 C 364.311 373.316 364.801 371.918 364.836 370.508 C 365.192 356.497 365.61 342.484 365.715 328.468 C 365.767 321.399 365.213 314.324 364.933 307.251 Z" style=""/>
  <path fill="#B3D8F4" opacity="1.000000" stroke="none" d="M 152.2 166.672 C 143.054 173.825 134.285 181.528 124.688 188.02 C 101.618 203.624 76.021 212.815 48.214 215.767 C 45.361 216.07 42.508 216.379 39.249 216.733 C 30.994 200.962 25.076 184.424 20.963 167.299 C 19.119 159.618 18.287 151.699 16.925 143.9 C 16.785 143.097 16.168 142.376 15.456 141.917 C 15.138 123.447 15.138 104.678 15.452 85.781 C 16.157 85.052 16.838 84.477 16.896 83.846 C 18.119 70.431 21.559 57.536 26.141 44.919 C 26.603 43.647 27.836 42.653 28.769 41.84 C 32.11 45.665 35.309 49.261 38.69 52.68 C 50.904 65.03 63.179 77.321 75.312 89.912 C 72.047 93.155 68.903 96.12 65.964 98.893 C 73.404 106.279 80.232 113.057 87.155 119.93 C 90.322 116.947 93.803 113.669 97.421 110.667 C 114.509 127.867 131.455 144.797 148.423 161.705 C 149.594 162.872 150.934 163.869 152.186 165.233 C 152.184 165.904 152.193 166.288 152.2 166.672 Z" style=""/>
  <path fill="#8CBCFF" opacity="1.000000" stroke="none" d="M 75.432 89.633 C 63.179 77.321 50.904 65.03 38.69 52.68 C 35.309 49.261 32.11 45.665 28.934 41.52 C 42.28 36.612 55.586 32.625 69.564 31.434 C 70.037 31.393 70.419 30.311 70.844 29.714 C 89.736 29.714 108.628 29.714 127.949 29.714 C 129.108 30.318 129.783 31.362 130.58 31.463 C 155.835 34.673 179.903 41.737 202.952 53.707 C 202.516 60.52 202.093 66.849 200.978 73.056 C 195.464 103.731 182.452 130.988 162.396 154.897 C 159.345 158.535 155.613 161.61 152.195 164.945 C 150.934 163.869 149.594 162.872 148.423 161.705 C 131.455 144.797 114.509 127.867 97.542 110.388 C 100.568 107.002 103.609 104.17 106.136 101.814 C 98.743 94.455 91.939 87.681 84.96 80.733 C 81.97 83.526 78.701 86.579 75.432 89.633 Z" style=""/>
  <path fill="#B3D8F4" opacity="1.000000" stroke="none" d="M 416.851 428.741 C 397.994 447.998 378.979 466.981 359.982 485.981 C 357.427 488.537 354.959 491.18 352.738 494.01 C 352.051 494.239 351.078 494.239 349.738 494.239 C 349.319 493.491 349.483 492.638 349.179 492.007 C 342.328 477.792 335.354 463.636 328.551 449.399 C 318.239 427.819 308.035 406.188 297.796 384.573 C 296.744 382.352 295.766 380.095 294.622 377.551 C 305.862 377.53 317.236 378.13 328.602 378.006 C 339.798 377.885 350.985 376.971 362.182 376.575 C 363.499 376.529 365.202 377.212 366.14 378.14 C 383.047 394.865 399.863 411.679 416.851 428.741 Z" style=""/>
  <path fill="#B4D8F4" opacity="1.000000" stroke="none" d="M 101.865 303.225 C 111.586 310.715 121.088 318.889 131.141 326.329 C 147.061 338.108 164.822 346.712 183.398 353.41 C 196.911 358.283 210.848 361.993 224.596 366.224 C 226.181 366.712 227.759 367.222 229.575 367.965 C 226.56 371.572 223.367 374.991 220.051 378.287 C 198.756 399.442 177.436 420.572 156.119 441.705 C 155.172 442.644 154.175 443.535 152.808 444.817 C 148.967 434.087 145.303 423.731 141.557 413.405 C 131.265 385.038 120.922 356.692 110.638 328.323 C 107.656 320.098 104.804 311.829 101.865 303.225 Z" style=""/>
  <path fill="#7C84E8" opacity="1.000000" stroke="none" d="M 152.186 165.233 C 155.613 161.61 159.345 158.535 162.396 154.897 C 182.452 130.988 195.464 103.731 200.978 73.056 C 202.093 66.849 202.516 60.52 203.254 53.846 C 209.032 56.276 215.067 58.699 220.542 62.029 C 230.628 68.165 240.592 74.546 250.214 81.372 C 258.054 86.933 265.479 93.108 272.791 99.354 C 278.722 104.419 284.21 109.994 290.137 115.893 C 294.733 121.262 299.294 125.912 303.404 130.928 C 325.589 158.014 339.993 189.017 349.681 222.365 C 351.689 229.277 353.763 236.172 355.807 243.075 C 357.903 254.472 360.174 265.839 362.027 277.274 C 363.044 283.548 363.365 289.933 363.98 296.27 C 364.309 299.659 364.596 303.053 364.918 306.849 C 365.213 314.324 365.767 321.399 365.715 328.468 C 365.61 342.484 365.192 356.497 364.836 370.508 C 364.801 371.918 364.311 373.316 363.863 375.577 C 361.936 373.755 360.629 372.569 359.379 371.327 C 309.496 321.78 259.62 272.225 209.734 222.681 C 208.34 221.297 206.853 220.006 205.162 218.252 C 204.941 217.446 204.969 217.058 205.28 216.537 C 224.397 198.487 238.719 177.306 250.736 154.497 C 251.232 153.557 250.328 150.883 249.342 150.344 C 243.494 147.15 237.403 144.398 231.447 141.397 C 228.241 139.781 226.683 140.95 225.108 143.929 C 217.335 158.641 208.331 172.555 197.223 185.056 C 193.342 189.424 189.638 193.949 185.567 198.407 C 184.899 198.407 184.518 198.405 184.137 198.401 C 183.518 197.4 183.066 196.235 182.256 195.424 C 173.098 186.25 163.89 177.125 154.672 168.01 C 154.153 167.497 153.43 167.19 152.501 166.729 C 152.193 166.288 152.184 165.904 152.186 165.233 Z" style=""/>
  <path fill="#B4D8F4" opacity="1.000000" stroke="none" d="M 356.103 242.968 C 353.763 236.172 351.689 229.277 349.681 222.365 C 339.993 189.017 325.589 158.014 303.404 130.928 C 299.294 125.912 294.733 121.262 290.25 116.181 C 297.588 118.415 305.093 120.805 312.518 123.421 C 341.371 133.59 370.217 143.779 399.025 154.07 C 410.175 158.054 421.22 162.33 432.988 166.725 C 407.395 192.167 381.897 217.514 356.103 242.968 Z" style=""/>
  <path fill="#B3D8F4" opacity="1.000000" stroke="none" d="M 204.996 216.672 C 204.969 217.058 204.941 217.446 204.874 218.122 C 199.82 222.728 194.807 227.045 189.793 231.362 C 175.155 243.968 158.969 254.276 141.974 263.425 C 138.679 265.199 137.101 264.301 135.699 261.173 C 133.105 255.385 130.326 249.675 127.482 244.003 C 126.295 241.635 126.591 240.164 129.069 238.903 C 145.212 230.686 160.125 220.625 173.833 208.839 C 177.384 205.786 180.524 202.263 183.995 198.679 C 184.518 198.405 184.899 198.407 185.708 198.685 C 189.601 202.481 192.979 206.097 196.564 209.496 C 199.236 212.032 202.175 214.29 204.996 216.672 Z" style=""/>
  <path fill="#08495F" opacity="1.000000" stroke="none" d="M 75.312 89.912 C 78.701 86.579 81.97 83.526 84.96 80.733 C 91.939 87.681 98.743 94.455 106.136 101.814 C 103.609 104.17 100.568 107.002 97.405 110.112 C 93.803 113.669 90.322 116.947 87.155 119.93 C 80.232 113.057 73.404 106.279 65.964 98.893 C 68.903 96.12 72.047 93.155 75.312 89.912 Z" style=""/>
  <path fill="#8CBCFF" opacity="1.000000" stroke="none" d="M 205.28 216.537 C 202.175 214.29 199.236 212.032 196.564 209.496 C 192.979 206.097 189.601 202.481 185.994 198.681 C 189.638 193.949 193.342 189.424 197.223 185.056 C 208.331 172.555 217.335 158.641 225.108 143.929 C 226.683 140.95 228.241 139.781 231.447 141.397 C 237.403 144.398 243.494 147.15 249.342 150.344 C 250.328 150.883 251.232 153.557 250.736 154.497 C 238.719 177.306 224.397 198.487 205.28 216.537 Z" style=""/>
</svg>